<svg id="instagram" width="100%" height="100%" viewBox="0 0 40 40" fill="none" xmlns="http://www.w3.org/2000/svg">
    <path fill-rule="evenodd" clip-rule="evenodd"
          d="M27.3081 11.5599C27.5833 11.376 27.9068 11.2778 28.2378 11.2778C28.4576 11.2778 28.6751 11.321 28.8782 11.4051C29.0812 11.4892 29.2656 11.6124 29.421 11.7678C29.5764 11.9231 29.6997 12.1076 29.7838 12.3106C29.8679 12.5136 29.9112 12.7312 29.9112 12.9509C29.9112 13.2819 29.8131 13.6054 29.6293 13.8806C29.4455 14.1559 29.1841 14.3704 28.8784 14.4971C28.5726 14.6238 28.2361 14.6569 27.9115 14.5924C27.5869 14.5279 27.2887 14.3685 27.0547 14.1345C26.8206 13.9005 26.6612 13.6023 26.5966 13.2777C26.5321 12.9531 26.5652 12.6167 26.6918 12.3109C26.8185 12.0051 27.0329 11.7437 27.3081 11.5599ZM28.446 11.905C28.6529 11.9461 28.843 12.0477 28.9921 12.1968C29.1919 12.397 29.3041 12.6683 29.3041 12.951C29.3041 13.2338 29.1919 13.5051 28.9921 13.7052C28.843 13.8544 28.6529 13.956 28.446 13.9971C28.2392 14.0383 28.0247 14.0171 27.8298 13.9364C27.6349 13.8557 27.4684 13.719 27.3512 13.5436C27.234 13.3682 27.1714 13.162 27.1714 12.951C27.1714 12.7401 27.234 12.5339 27.3512 12.3585C27.4684 12.1831 27.6349 12.0464 27.8298 11.9657C28.0247 11.8849 28.2392 11.8638 28.446 11.905Z"
          fill="black"/>
    <path fill-rule="evenodd" clip-rule="evenodd"
          d="M16.4967 14.5283C17.6701 13.7443 19.0497 13.3258 20.461 13.3258C21.398 13.3257 22.3259 13.5103 23.1916 13.8688C24.0573 14.2274 24.8439 14.7529 25.5065 15.4155C26.1691 16.0781 26.6947 16.8647 27.0533 17.7304C27.4119 18.5961 27.5965 19.5239 27.5965 20.461C27.5965 21.8723 27.1781 23.2519 26.394 24.4253C25.61 25.5988 24.4956 26.5134 23.1918 27.0535C21.888 27.5936 20.4532 27.735 19.0691 27.4597C17.6849 27.1844 16.4135 26.5048 15.4155 25.5069C14.4176 24.509 13.738 23.2376 13.4626 21.8534C13.1873 20.4693 13.3286 19.0345 13.8686 17.7307C14.4087 16.4268 15.3232 15.3124 16.4967 14.5283ZM21.7348 14.0579C23.0012 14.3098 24.1645 14.9316 25.0776 15.8446C26.302 17.069 26.9898 18.7296 26.9898 20.4611C26.9898 22.1926 26.302 23.8532 25.0776 25.0776C24.1645 25.9906 23.0012 26.6125 21.7348 26.8644C20.4683 27.1163 19.1556 26.987 17.9627 26.4928C16.7697 25.9987 15.7501 25.1619 15.0327 24.0883C14.3153 23.0146 13.9324 21.7524 13.9324 20.4611C13.9324 19.1699 14.3153 17.9076 15.0327 16.834C15.7501 15.7603 16.7697 14.9235 17.9627 14.4294C19.1556 13.9352 20.4683 13.8059 21.7348 14.0579Z"
          fill="black"/>
    <path fill-rule="evenodd" clip-rule="evenodd"
          d="M28.0666 8H12.4334C11.2586 8.00323 10.1328 8.47136 9.30209 9.30209C8.47136 10.1328 8.00323 11.2586 8 12.4334V28.0666C8.00316 29.2414 8.47127 30.3672 9.30201 31.198C10.1327 32.0287 11.2586 32.4968 12.4334 32.5H28.0666C29.2414 32.4968 30.3672 32.0286 31.1979 31.1979C32.0286 30.3672 32.4968 29.2414 32.5 28.0666V12.4334C32.4967 11.2586 32.0285 10.1329 31.1978 9.30217C30.3671 8.47146 29.2414 8.0033 28.0666 8ZM12.4334 8.60678H28.0666C29.0805 8.60987 30.052 9.01402 30.769 9.73099C31.486 10.448 31.8901 11.4195 31.8932 12.4334V28.0666C31.8901 29.0805 31.486 30.052 30.769 30.769C30.052 31.486 29.0805 31.8901 28.0666 31.8932H12.4334C11.4195 31.8901 10.448 31.486 9.73099 30.769C9.01402 30.052 8.60987 29.0805 8.60678 28.0666V12.4334C8.60987 11.4195 9.01402 10.448 9.73099 9.73099C10.448 9.01402 11.4195 8.60987 12.4334 8.60678Z"
          fill="black"/>
    <path fill-rule="evenodd" clip-rule="evenodd"
          d="M40 20C40 31.0457 31.0457 40 20 40C8.9543 40 0 31.0457 0 20C0 8.9543 8.9543 0 20 0C31.0457 0 40 8.9543 40 20ZM39.25 20C39.25 30.6315 30.6315 39.25 20 39.25C9.36852 39.25 0.75 30.6315 0.75 20C0.75 9.36852 9.36852 0.75 20 0.75C30.6315 0.75 39.25 9.36852 39.25 20Z"
          fill="black"/>
</svg>
