<svg id="logo" width="165" height="44" viewBox="0 0 165 44" fill="none" xmlns="http://www.w3.org/2000/svg">
    <path d="M12.048 11.814C12.048 10.934 11.9453 10.2887 11.74 9.878C11.564 9.46733 11.1973 9.18866 10.64 9.042C10.112 8.866 9.276 8.778 8.132 8.778C8.07333 8.778 8.044 8.69 8.044 8.514C8.044 8.338 8.07333 8.25 8.132 8.25L10.288 8.294C11.52 8.35267 12.488 8.382 13.192 8.382C13.984 8.382 14.996 8.35267 16.228 8.294L18.296 8.25C18.3547 8.25 18.384 8.338 18.384 8.514C18.384 8.69 18.3547 8.778 18.296 8.778C17.152 8.778 16.3013 8.866 15.744 9.042C15.216 9.218 14.8493 9.526 14.644 9.966C14.468 10.3767 14.38 11.022 14.38 11.902V32.186C14.38 33.0953 14.468 33.7553 14.644 34.166C14.8493 34.5767 15.216 34.8553 15.744 35.002C16.272 35.1487 17.1227 35.222 18.296 35.222C18.3547 35.222 18.384 35.31 18.384 35.486C18.384 35.662 18.3547 35.75 18.296 35.75C17.416 35.75 16.712 35.7353 16.184 35.706L13.192 35.662L10.288 35.706C9.76 35.7353 9.02667 35.75 8.088 35.75C8.02933 35.75 8 35.662 8 35.486C8 35.31 8.02933 35.222 8.088 35.222C9.232 35.222 10.068 35.1487 10.596 35.002C11.1533 34.8553 11.5347 34.5767 11.74 34.166C11.9453 33.726 12.048 33.066 12.048 32.186V11.814ZM15.7 20.394L17.548 19.074L23.884 27.038C26.1133 29.8247 27.8147 31.79 28.988 32.934C30.1613 34.078 31.056 34.7527 31.672 34.958C32.288 35.134 33.212 35.222 34.444 35.222C34.532 35.222 34.576 35.31 34.576 35.486C34.576 35.662 34.532 35.75 34.444 35.75H29.516C28.4893 35.75 27.8733 35.6913 27.668 35.574C27.4627 35.4567 26.92 34.782 26.04 33.55C25.1893 32.318 24.148 30.9247 22.916 29.37L15.7 20.394ZM24.06 11.55C25.0573 10.5527 25.556 9.86333 25.556 9.482C25.556 9.218 25.3507 9.042 24.94 8.954C24.5587 8.83666 23.9133 8.778 23.004 8.778C22.9453 8.778 22.916 8.69 22.916 8.514C22.916 8.338 22.9453 8.25 23.004 8.25L24.852 8.294C25.9667 8.35267 27.008 8.382 27.976 8.382C28.8853 8.382 29.8387 8.35267 30.836 8.294L32.376 8.25C32.464 8.25 32.508 8.338 32.508 8.514C32.508 8.69 32.464 8.778 32.376 8.778C31.1733 8.778 29.9267 9.01267 28.636 9.482C27.3747 9.922 26.1867 10.6993 25.072 11.814L13.808 22.77L12.752 22.814L24.06 11.55Z" fill="black"/>
    <path d="M35.9282 23.9582C35.8402 23.9876 35.7522 23.8262 35.6642 23.4742C35.6055 23.1222 35.5762 22.7996 35.5762 22.5062C35.5762 22.2422 35.6055 22.1102 35.6642 22.1102L49.1722 20.0422C49.2602 20.0129 49.3335 20.1596 49.3922 20.4822C49.4802 20.8049 49.5242 21.1129 49.5242 21.4062C49.5242 21.7289 49.4802 21.8902 49.3922 21.8902L35.9282 23.9582Z" fill="black"/>
    <path d="M66.3199 35.6401C66.2906 35.7574 66.1293 35.8161 65.8359 35.8161C65.6013 35.8161 65.4399 35.7574 65.3519 35.6401L54.4839 11.8361C53.9853 10.6921 53.4426 9.88541 52.8559 9.41608C52.2986 8.94675 51.5653 8.71208 50.6559 8.71208C50.5679 8.71208 50.5239 8.62408 50.5239 8.44808C50.5239 8.27208 50.5679 8.18408 50.6559 8.18408L52.5479 8.22808C53.3693 8.28675 53.9853 8.31608 54.3959 8.31608C55.2466 8.31608 56.2586 8.28675 57.4319 8.22808L59.3239 8.18408C59.4119 8.18408 59.4559 8.27208 59.4559 8.44808C59.4559 8.62408 59.4119 8.71208 59.3239 8.71208C58.4146 8.71208 57.7253 8.81475 57.2559 9.02008C56.7866 9.22541 56.5519 9.59208 56.5519 10.1201C56.5519 10.4134 56.6693 10.8387 56.9039 11.3961L67.0239 33.2201L65.5279 35.1121L71.4679 20.5041L72.0839 21.3841L66.3199 35.6401ZM92.0599 8.18408C92.1479 8.18408 92.1919 8.27208 92.1919 8.44808C92.1919 8.62408 92.1479 8.71208 92.0599 8.71208C91.0626 8.71208 90.2266 8.93208 89.5519 9.37208C88.9066 9.78275 88.3346 10.5747 87.8359 11.7481L78.1559 35.6401C78.1266 35.7574 77.9653 35.8161 77.6719 35.8161C77.4373 35.8161 77.2759 35.7574 77.1879 35.6401L66.3199 11.8361C65.8213 10.6921 65.2786 9.88541 64.6919 9.41608C64.1346 8.94675 63.4013 8.71208 62.4919 8.71208C62.4039 8.71208 62.3599 8.62408 62.3599 8.44808C62.3599 8.27208 62.4039 8.18408 62.4919 8.18408L64.3839 8.22808C65.2053 8.28675 65.8213 8.31608 66.2319 8.31608C66.8479 8.31608 67.5666 8.28675 68.3879 8.22808L69.6199 8.18408C69.7079 8.18408 69.7519 8.27208 69.7519 8.44808C69.7519 8.62408 69.7079 8.71208 69.6199 8.71208C69.0333 8.71208 68.6226 8.75608 68.3879 8.84408C68.1533 8.93208 68.0359 9.10808 68.0359 9.37208C68.0359 9.63608 68.2706 10.3107 68.7399 11.3961L78.8599 33.2201L77.3639 35.1121L86.9559 11.4841C87.1613 11.0441 87.2639 10.6187 87.2639 10.2081C87.2639 9.68008 86.9853 9.29875 86.4279 9.06408C85.8999 8.82941 85.0053 8.71208 83.7439 8.71208C83.6559 8.71208 83.6119 8.62408 83.6119 8.44808C83.6119 8.27208 83.6559 8.18408 83.7439 8.18408L85.5039 8.22808C86.5013 8.28675 87.3813 8.31608 88.1439 8.31608C88.7599 8.31608 89.4493 8.28675 90.2119 8.22808L92.0599 8.18408ZM75.2959 11.4841C75.5599 10.8681 75.6919 10.3547 75.6919 9.94408C75.6919 9.50408 75.5159 9.19608 75.1639 9.02008C74.8413 8.81475 74.3133 8.71208 73.5799 8.71208C73.5213 8.71208 73.4919 8.62408 73.4919 8.44808C73.4919 8.27208 73.5213 8.18408 73.5799 8.18408L74.8119 8.22808C75.3986 8.28675 75.9559 8.31608 76.4839 8.31608C77.0706 8.31608 77.7453 8.28675 78.5079 8.22808L80.3999 8.18408C80.4586 8.18408 80.4879 8.27208 80.4879 8.44808C80.4879 8.62408 80.4586 8.71208 80.3999 8.71208C79.4026 8.71208 78.5666 8.93208 77.8919 9.37208C77.2173 9.78275 76.6453 10.5747 76.1759 11.7481L72.2599 21.3841L71.6439 20.5041L75.2959 11.4841Z" fill="black"/>
    <path d="M93.2799 35.75C93.2212 35.75 93.1919 35.662 93.1919 35.486C93.1919 35.31 93.2212 35.222 93.2799 35.222C94.4239 35.222 95.2599 35.1487 95.7879 35.002C96.3452 34.8553 96.7119 34.5767 96.8879 34.166C97.0932 33.726 97.1959 33.066 97.1959 32.186V11.814C97.1959 10.934 97.0932 10.2887 96.8879 9.878C96.7119 9.46733 96.3452 9.18866 95.7879 9.042C95.2599 8.866 94.4239 8.778 93.2799 8.778C93.2212 8.778 93.1919 8.69 93.1919 8.514C93.1919 8.338 93.2212 8.25 93.2799 8.25H110.704C110.968 8.25 111.1 8.382 111.1 8.646L111.188 13.97C111.188 14.058 111.1 14.102 110.924 14.102C110.777 14.102 110.704 14.058 110.704 13.97C110.704 12.474 110.308 11.286 109.516 10.406C108.724 9.526 107.683 9.086 106.392 9.086H103.356C102.241 9.086 101.42 9.15933 100.892 9.306C100.364 9.45267 99.9972 9.73133 99.7919 10.142C99.6159 10.5527 99.5279 11.198 99.5279 12.078V32.01C99.5279 32.8607 99.6159 33.4913 99.7919 33.902C99.9972 34.2833 100.349 34.5473 100.848 34.694C101.376 34.8407 102.212 34.914 103.356 34.914H107.404C108.577 34.914 109.575 34.4007 110.396 33.374C111.247 32.3473 111.789 30.998 112.024 29.326C112.024 29.238 112.112 29.2087 112.288 29.238C112.464 29.238 112.552 29.282 112.552 29.37C112.288 31.218 112.156 33.1247 112.156 35.09C112.156 35.3247 112.097 35.5007 111.98 35.618C111.892 35.706 111.716 35.75 111.452 35.75H93.2799ZM108.988 25.41C108.988 24.09 108.709 23.166 108.152 22.638C107.595 22.11 106.612 21.846 105.204 21.846H98.4279V21.01H105.336C106.685 21.01 107.624 20.79 108.152 20.35C108.68 19.8807 108.944 19.0887 108.944 17.974C108.944 17.9153 109.032 17.886 109.208 17.886C109.384 17.886 109.472 17.9153 109.472 17.974L109.428 21.45C109.428 22.3007 109.443 22.9313 109.472 23.342L109.516 25.41C109.516 25.4687 109.428 25.498 109.252 25.498C109.076 25.498 108.988 25.4687 108.988 25.41Z" fill="black"/>
    <path d="M119.888 32.01C119.888 32.8607 119.976 33.4913 120.152 33.902C120.357 34.2833 120.709 34.5473 121.208 34.694C121.736 34.8407 122.557 34.914 123.672 34.914H129.304C132.208 34.914 133.924 33.0513 134.452 29.326C134.452 29.238 134.525 29.2087 134.672 29.238C134.848 29.238 134.936 29.282 134.936 29.37C134.672 31.6873 134.54 33.594 134.54 35.09C134.54 35.3247 134.496 35.5007 134.408 35.618C134.32 35.706 134.144 35.75 133.88 35.75H113.64C113.581 35.75 113.552 35.662 113.552 35.486C113.552 35.31 113.581 35.222 113.64 35.222C114.784 35.222 115.62 35.1487 116.148 35.002C116.705 34.8553 117.072 34.5767 117.248 34.166C117.453 33.726 117.556 33.066 117.556 32.186V11.814C117.556 10.934 117.453 10.2887 117.248 9.878C117.072 9.46733 116.705 9.18866 116.148 9.042C115.62 8.866 114.784 8.778 113.64 8.778C113.581 8.778 113.552 8.69 113.552 8.514C113.552 8.338 113.581 8.25 113.64 8.25L115.796 8.294C117.028 8.35267 117.996 8.382 118.7 8.382C119.492 8.382 120.504 8.35267 121.736 8.294L123.804 8.25C123.862 8.25 123.892 8.338 123.892 8.514C123.892 8.69 123.862 8.778 123.804 8.778C122.66 8.778 121.809 8.866 121.252 9.042C120.724 9.18866 120.357 9.482 120.152 9.922C119.976 10.3327 119.888 10.978 119.888 11.858V32.01Z" fill="black"/>
    <path d="M142.272 32.01C142.272 32.8607 142.36 33.4913 142.536 33.902C142.741 34.2833 143.093 34.5473 143.592 34.694C144.12 34.8407 144.941 34.914 146.056 34.914H151.688C154.592 34.914 156.308 33.0513 156.836 29.326C156.836 29.238 156.909 29.2087 157.056 29.238C157.232 29.238 157.32 29.282 157.32 29.37C157.056 31.6873 156.924 33.594 156.924 35.09C156.924 35.3247 156.88 35.5007 156.792 35.618C156.704 35.706 156.528 35.75 156.264 35.75H136.024C135.965 35.75 135.936 35.662 135.936 35.486C135.936 35.31 135.965 35.222 136.024 35.222C137.168 35.222 138.004 35.1487 138.532 35.002C139.089 34.8553 139.456 34.5767 139.632 34.166C139.837 33.726 139.94 33.066 139.94 32.186V11.814C139.94 10.934 139.837 10.2887 139.632 9.878C139.456 9.46733 139.089 9.18866 138.532 9.042C138.004 8.866 137.168 8.778 136.024 8.778C135.965 8.778 135.936 8.69 135.936 8.514C135.936 8.338 135.965 8.25 136.024 8.25L138.18 8.294C139.412 8.35267 140.38 8.382 141.084 8.382C141.876 8.382 142.888 8.35267 144.12 8.294L146.188 8.25C146.247 8.25 146.276 8.338 146.276 8.514C146.276 8.69 146.247 8.778 146.188 8.778C145.044 8.778 144.193 8.866 143.636 9.042C143.108 9.18866 142.741 9.482 142.536 9.922C142.36 10.3327 142.272 10.978 142.272 11.858V32.01Z" fill="black"/>
</svg>
