<svg id="telegram" width="100%" height="100%" viewBox="0 0 40 40" fill="none" xmlns="http://www.w3.org/2000/svg">
    <path fill-rule="evenodd" clip-rule="evenodd"
          d="M20 39.25C30.6315 39.25 39.25 30.6315 39.25 20C39.25 9.36852 30.6315 0.75 20 0.75C9.36852 0.75 0.75 9.36852 0.75 20C0.75 30.6315 9.36852 39.25 20 39.25ZM20 40C31.0457 40 40 31.0457 40 20C40 8.9543 31.0457 0 20 0C8.9543 0 0 8.9543 0 20C0 31.0457 8.9543 40 20 40Z"
          fill="black"/>
    <path fill-rule="evenodd" clip-rule="evenodd"
          d="M13.1403 28.8307C13.0795 28.8861 13.0058 28.9257 12.9258 28.946C12.5723 29.0054 12.4013 28.6465 12.2903 27.7812C12.1217 26.4669 11.923 24.0399 11.7883 22.4295C11.7208 21.6179 11.6809 21.1429 11.4379 20.7169C11.408 20.6895 11.3835 20.6569 11.3656 20.6207C11.3577 20.6051 11.3512 20.5889 11.3461 20.5722C11.189 20.3581 11.0046 20.1649 10.7976 19.9974L6.27632 16.1643C6.15099 16.0592 6.06237 15.9176 6.02309 15.7597C5.9982 15.6602 5.99338 15.5569 6.00889 15.4556C6.0244 15.3542 6.05994 15.2569 6.11347 15.1692C6.16701 15.0815 6.23749 15.0051 6.32088 14.9444C6.40427 14.8836 6.49894 14.8398 6.59946 14.8154L32.0253 8.63634C32.169 8.60142 32.3196 8.60728 32.4601 8.65325C32.6005 8.69922 32.725 8.78344 32.8193 8.89625C32.9136 9.00906 32.9739 9.1459 32.9932 9.29108C33.0126 9.43625 32.9902 9.5839 32.9287 9.71707L24.2912 28.4377C24.241 28.547 24.166 28.6432 24.072 28.719C23.978 28.7948 23.8676 28.8481 23.7493 28.8746C23.6311 28.9012 23.5083 28.9003 23.3904 28.8721C23.2726 28.8438 23.163 28.789 23.0701 28.7119L18.3511 24.8043L13.1403 28.8307ZM11.7901 20.0443L18.5527 16.7353C18.6317 16.6994 18.7216 16.6955 18.8035 16.7243C18.8854 16.7531 18.9527 16.8123 18.9911 16.8895C19.0295 16.9666 19.036 17.0556 19.0092 17.1374C18.9824 17.2192 18.9244 17.2875 18.8476 17.3277L12.1469 20.607C12.3869 21.1521 12.4202 21.967 12.488 22.7756C12.6143 24.279 12.8085 26.587 12.951 27.6989C12.9528 27.7128 12.9543 27.7268 12.9549 27.7405C12.9633 27.7161 12.9723 27.6909 12.9822 27.6647C13.4823 26.3529 14.1223 24.4828 14.6261 23.3308C14.7308 23.0919 14.8695 22.8691 15.038 22.6692C15.1861 22.4873 15.3656 22.3328 15.5682 22.2129L31.6368 9.41228L6.75128 15.4588C6.72224 15.4684 6.69787 15.4885 6.68294 15.5149C6.66802 15.5414 6.6636 15.5725 6.67057 15.602C6.67717 15.6253 6.69077 15.646 6.70957 15.6614L11.2312 19.496C11.4333 19.6628 11.6208 19.8464 11.7916 20.0446L11.7901 20.0443ZM20.6113 16.4635L21.743 15.9095C21.8223 15.8707 21.8828 15.8023 21.9112 15.7194C21.9396 15.6365 21.9335 15.5458 21.8944 15.4673C21.8552 15.3888 21.7862 15.3289 21.7024 15.3008C21.6187 15.2726 21.5271 15.2786 21.4478 15.3174L20.3181 15.8717C20.278 15.8904 20.242 15.9168 20.2122 15.9494C20.1825 15.982 20.1597 16.0202 20.145 16.0616C20.1303 16.1031 20.1242 16.147 20.1269 16.1908C20.1296 16.2347 20.1411 16.2776 20.1607 16.3169C20.1803 16.3563 20.2077 16.3914 20.2412 16.4202C20.2747 16.449 20.3137 16.4709 20.3558 16.4846C20.398 16.4983 20.4425 16.5036 20.4867 16.5C20.5309 16.4965 20.574 16.4843 20.6134 16.4641L20.6113 16.4635ZM15.8968 22.7878C15.6041 22.9882 15.3751 23.2671 15.2367 23.5916C14.7995 24.5927 14.1907 26.322 13.7449 27.5266L17.8284 24.3714C17.3282 23.957 16.7996 23.5284 16.3111 23.105C16.036 22.8674 15.928 22.7732 15.8968 22.7878ZM32.1288 9.86798L16.4518 22.3561L17.1047 22.9102L23.527 28.225C23.556 28.2378 23.5888 28.2387 23.6185 28.2275C23.6481 28.2164 23.6721 28.1941 23.6852 28.1656L32.1288 9.86798ZM12.7731 28.2779C12.8745 28.1994 12.8481 28.2428 12.8679 28.1068C12.833 28.162 12.8013 28.2191 12.7731 28.2779Z"
          fill="black"/>
</svg>
